<?xml version="1.0" encoding="UTF-8"?>
<svg version="1.1" xmlns="http://www.w3.org/2000/svg" width="628" height="153">
<path d="M0 0 C0.69029297 -0.01611328 1.38058594 -0.03222656 2.09179688 -0.04882812 C8.41722941 -0.0548238 12.27364763 1.71808811 16.9375 5.875 C19.0625 8.3125 19.0625 8.3125 19.0625 10.3125 C19.70316406 9.84199219 20.34382813 9.37148438 21.00390625 8.88671875 C22.30134766 7.95279297 22.30134766 7.95279297 23.625 7 C24.47191406 6.38511719 25.31882812 5.77023438 26.19140625 5.13671875 C31.99479662 1.44939453 37.07204515 -0.23003708 43.9375 -0.125 C44.98804565 -0.11255249 44.98804565 -0.11255249 46.05981445 -0.09985352 C52.63155655 0.11400399 58.02619965 1.14386695 62.67578125 5.99609375 C66.38431738 10.85375375 67.18705927 14.90134985 67.19189453 20.9831543 C67.19504669 22.12080734 67.19819885 23.25846039 67.20144653 24.43058777 C67.19841019 26.2651226 67.19841019 26.2651226 67.1953125 28.13671875 C67.19626923 29.39386185 67.19722595 30.65100494 67.19821167 31.94624329 C67.19889201 34.60164847 67.19754989 37.25696151 67.19287109 39.91235352 C67.18715663 43.32225806 67.19046691 46.73208419 67.19644356 50.14198589 C67.20091456 53.39023305 67.19779018 56.63847058 67.1953125 59.88671875 C67.19733673 61.11581467 67.19936096 62.34491058 67.20144653 63.61125183 C67.19671829 65.30354668 67.19671829 65.30354668 67.19189453 67.0300293 C67.19109894 68.02834274 67.19030334 69.02665619 67.18948364 70.05522156 C67.0625 72.3125 67.0625 72.3125 66.0625 73.3125 C57.31813963 74.54990949 48.81505243 74.2436226 40.0625 73.3125 C39.23418369 67.66720574 38.99895882 62.16178232 39.0703125 56.4609375 C39.08212555 55.39954559 39.08212555 55.39954559 39.09417725 54.31671143 C39.13062693 51.35932797 39.17271218 48.40229671 39.23388672 45.4453125 C39.2764806 43.26297431 39.29971769 41.08107969 39.3203125 38.8984375 C39.3423877 37.6098584 39.36446289 36.3212793 39.38720703 34.99365234 C39.01345805 30.75651921 37.92118034 28.10264218 36.0625 24.3125 C30.19673679 23.74404726 30.19673679 23.74404726 25.125 26.375 C21.27939059 31.85208007 21.92163085 38.61621406 21.96484375 45.08984375 C21.9662587 45.90119278 21.96767365 46.71254181 21.96913147 47.54847717 C21.97468643 50.11569047 21.98723033 52.68281348 22 55.25 C22.00502083 57.00064977 22.00958271 58.75130093 22.01367188 60.50195312 C22.02464107 64.7721697 22.04187418 69.04231959 22.0625 73.3125 C17.93634379 75.37557811 12.59735586 74.54160205 8.0625 74.5625 C6.94359375 74.583125 5.8246875 74.60375 4.671875 74.625 C3.60453125 74.63015625 2.5371875 74.6353125 1.4375 74.640625 C0.45523438 74.6499707 -0.52703125 74.65931641 -1.5390625 74.66894531 C-2.33054688 74.55131836 -3.12203125 74.43369141 -3.9375 74.3125 C-6.56515139 70.37102291 -6.13480008 67.07611641 -6.02734375 62.515625 C-6.00691186 60.73437785 -5.98673776 58.95312772 -5.96679688 57.171875 C-5.92341065 54.36966398 -5.87509936 51.56765076 -5.82104492 48.765625 C-5.77251117 46.05729843 -5.74280062 43.34923106 -5.71484375 40.640625 C-5.69308578 39.81121399 -5.67132782 38.98180298 -5.64891052 38.1272583 C-5.60345442 32.74884536 -6.49090679 29.11484856 -8.9375 24.3125 C-10.154375 24.23 -11.37125 24.1475 -12.625 24.0625 C-13.30949219 24.01609375 -13.99398437 23.9696875 -14.69921875 23.921875 C-18.17360851 24.52822574 -19.53709998 25.71479344 -21.9375 28.3125 C-22.68479767 31.6197986 -22.61108156 34.87905531 -22.57421875 38.2578125 C-22.58459671 39.22403534 -22.59497467 40.19025818 -22.60566711 41.1857605 C-22.63537243 44.27003562 -22.63196739 47.35310745 -22.625 50.4375 C-22.63387861 53.52869602 -22.64977017 56.61956892 -22.6764679 59.71066284 C-22.69144019 61.63372363 -22.69515279 63.55691053 -22.68669128 65.48001099 C-22.69228813 66.78178787 -22.69228813 66.78178787 -22.69799805 68.10986328 C-22.69624069 68.87501251 -22.69448334 69.64016174 -22.69267273 70.42849731 C-22.9375 72.3125 -22.9375 72.3125 -24.9375 74.3125 C-27.24414062 74.55541992 -27.24414062 74.55541992 -30.09375 74.54296875 C-31.11597656 74.54103516 -32.13820313 74.53910156 -33.19140625 74.53710938 C-34.26261719 74.52486328 -35.33382812 74.51261719 -36.4375 74.5 C-37.50871094 74.49935547 -38.57992187 74.49871094 -39.68359375 74.49804688 C-47.65689772 74.45280114 -47.65689772 74.45280114 -49.9375 73.3125 C-49.9529612 72.47709686 -49.9529612 72.47709686 -49.96873474 71.62481689 C-50.07868562 65.71757567 -50.19307828 59.81043125 -50.30981445 53.90332031 C-50.35257241 51.71193508 -50.39427536 49.52052896 -50.43481445 47.32910156 C-50.69509185 33.30625538 -51.13853544 19.31545683 -51.9375 5.3125 C-42.98902065 2.71657656 -34.28184834 0.95310199 -24.9375 1.3125 C-24.2775 3.9525 -23.6175 6.5925 -22.9375 9.3125 C-22.27363281 8.83039062 -21.60976562 8.34828125 -20.92578125 7.8515625 C-20.04277344 7.21992187 -19.15976563 6.58828125 -18.25 5.9375 C-17.37988281 5.31101562 -16.50976562 4.68453125 -15.61328125 4.0390625 C-10.41256157 0.68326965 -6.13325092 -0.02847377 0 0 Z " fill="#FFFFFF" transform="translate(156.9375,27.6875)"/>
<path d="M0 0 C2.38616129 1.78159576 3.41840656 3.12760984 5.125 5.6875 C5.455 3.3775 5.785 1.0675 6.125 -1.3125 C15.27932195 -1.61934878 24.1159532 -0.94293515 33.125 0.6875 C34.80591969 2.36841969 34.26107532 4.44576955 34.27026367 6.7512207 C34.27664352 7.83357498 34.28302338 8.91592926 34.28959656 10.03108215 C34.29070938 11.21320786 34.2918222 12.39533356 34.29296875 13.61328125 C34.29796135 15.43293648 34.29796135 15.43293648 34.30305481 17.28935242 C34.30813316 19.86941142 34.31046286 22.44947702 34.31030273 25.02954102 C34.31246953 28.94493803 34.33056081 32.86004428 34.34960938 36.77539062 C34.35254719 39.28385321 34.35452939 41.79231712 34.35546875 44.30078125 C34.36265427 45.46064041 34.36983978 46.62049957 34.37724304 47.81550598 C34.3437828 59.96387223 33.19906038 71.46268039 26.125 81.6875 C17.60007307 89.95162611 6.22628691 91.21103612 -5.125 91.0625 C-6.22166992 91.05452393 -7.31833984 91.04654785 -8.44824219 91.03833008 C-18.49577666 90.86225305 -28.2409524 90.31223539 -36.875 84.6875 C-34.94789294 73.16585991 -34.94789294 73.16585991 -32.875 67.6875 C-28.94954625 68.10070566 -25.49300378 68.47737872 -21.75 69.75 C-14.45974862 71.5137705 -6.08357205 72.16871993 0.875 68.9375 C4.02685923 66.75544361 4.80805786 66.07023374 6.125 62.6875 C6.125 61.6975 6.125 60.7075 6.125 59.6875 C5.403125 60.30625 4.68125 60.925 3.9375 61.5625 C-2.52213307 65.82829542 -11.22252466 66.21667467 -18.6875 65.125 C-27.54103815 63.08187581 -33.68571534 58.04996225 -38.875 50.6875 C-44.30314072 40.83460214 -45.49411195 29.88174454 -42.69140625 18.9453125 C-39.38248869 9.79433475 -33.88974487 3.42281538 -25.4375 -1.1875 C-17.89336444 -3.6382368 -6.92048262 -4.19538415 0 0 Z M-13.875 22.6875 C-16.24871107 26.73624493 -17.29670574 30.22638537 -16.3125 34.875 C-15.18400641 38.43571269 -13.49167089 40.98905814 -10.875 43.6875 C-7.40021979 45.42489011 -3.66568864 45.28430392 0.125 44.6875 C3.55569712 41.98673844 6.79796587 38.89688173 7.4609375 34.41796875 C7.54968004 28.64082931 7.08880815 25.21756645 3.125 20.6875 C-2.56374612 16.89500258 -9.34066739 17.35299105 -13.875 22.6875 Z " fill="#FFFFFF" transform="translate(560.875,30.3125)"/>
<path d="M0 0 C0.75539063 -0.01998047 1.51078125 -0.03996094 2.2890625 -0.06054688 C9.39053754 -0.05444595 14.19560783 2.56790522 20 6.4375 C20.66 5.1175 21.32 3.7975 22 2.4375 C30.01701946 2.02282658 37.21930149 3.57810121 45 5.4375 C46.375114 10.22635854 45.68421805 14.46648598 45.0625 19.3125 C43.82981745 30.04385011 43.79500225 40.48785562 44.3359375 51.265625 C44.42137817 53.09480469 44.42137817 53.09480469 44.50854492 54.9609375 C44.62663424 57.42003085 44.75930585 59.87847288 44.9074707 62.3359375 C44.96249756 63.46773437 45.01752441 64.59953125 45.07421875 65.765625 C45.13182373 66.7855957 45.18942871 67.80556641 45.2487793 68.85644531 C45 71.4375 45 71.4375 43.828125 73.27368164 C41.33791627 74.85899481 39.61584261 74.77919905 36.67578125 74.73046875 C35.64775391 74.72080078 34.61972656 74.71113281 33.56054688 74.70117188 C32.48869141 74.67603516 31.41683594 74.65089844 30.3125 74.625 C29.22904297 74.61146484 28.14558594 74.59792969 27.02929688 74.58398438 C24.35236595 74.54860643 21.67643162 74.49924189 19 74.4375 C18.34 72.1275 17.68 69.8175 17 67.4375 C16.55269531 67.84742187 16.10539062 68.25734375 15.64453125 68.6796875 C10.0643776 73.65304406 5.612465 75.94637323 -2 76.4375 C-11.98004776 75.63193561 -18.41375675 72.40143624 -25.25 65.1875 C-34.57081831 54.21859986 -34.80976177 42.18845445 -34 28.4375 C-32.53431317 18.28948185 -26.68517571 11.6917402 -19.3203125 4.98046875 C-13.22776684 0.92902845 -7.2063168 -0.06763608 0 0 Z M-7 29.4375 C-8.97325184 33.38400367 -8.44349901 38.13616713 -8 42.4375 C-5.97508308 46.48733384 -3.80815002 49.03596395 0 51.4375 C4.42422662 52.17127417 8.64514389 51.9087543 12.875 50.4375 C16.52649823 47.00079578 18.80383921 43.20243301 19.1640625 38.125 C18.79879578 32.97647857 17.40784437 29.42954627 14 25.4375 C6.2555054 20.6754597 -1.38637147 22.81101495 -7 29.4375 Z " fill="#FFFFFF" transform="translate(268,27.5625)"/>
<path d="M0 0 C0.75539062 -0.01998047 1.51078125 -0.03996094 2.2890625 -0.06054688 C9.39053754 -0.05444595 14.19560783 2.56790522 20 6.4375 C20.66 5.1175 21.32 3.7975 22 2.4375 C30.01701946 2.02282658 37.21930149 3.57810121 45 5.4375 C46.375114 10.22635854 45.68421805 14.46648598 45.0625 19.3125 C43.82981745 30.04385011 43.79500225 40.48785562 44.3359375 51.265625 C44.42137817 53.09480469 44.42137817 53.09480469 44.50854492 54.9609375 C44.62663424 57.42003085 44.75930585 59.87847288 44.9074707 62.3359375 C44.96249756 63.46773437 45.01752441 64.59953125 45.07421875 65.765625 C45.13182373 66.7855957 45.18942871 67.80556641 45.2487793 68.85644531 C45 71.4375 45 71.4375 43.828125 73.27368164 C41.33791627 74.85899481 39.61584261 74.77919905 36.67578125 74.73046875 C35.64775391 74.72080078 34.61972656 74.71113281 33.56054688 74.70117188 C32.48869141 74.67603516 31.41683594 74.65089844 30.3125 74.625 C29.22904297 74.61146484 28.14558594 74.59792969 27.02929688 74.58398438 C24.35236595 74.54860643 21.67643162 74.49924189 19 74.4375 C18.34 72.1275 17.68 69.8175 17 67.4375 C16.55269531 67.84742187 16.10539062 68.25734375 15.64453125 68.6796875 C10.0643776 73.65304406 5.612465 75.94637323 -2 76.4375 C-11.98004776 75.63193561 -18.41375675 72.40143624 -25.25 65.1875 C-34.57081831 54.21859986 -34.80976177 42.18845445 -34 28.4375 C-32.53431317 18.28948185 -26.68517571 11.6917402 -19.3203125 4.98046875 C-13.22776684 0.92902845 -7.2063168 -0.06763608 0 0 Z M-7 29.4375 C-8.97325184 33.38400367 -8.44349901 38.13616713 -8 42.4375 C-5.97508308 46.48733384 -3.80815002 49.03596395 0 51.4375 C4.42422662 52.17127417 8.64514389 51.9087543 12.875 50.4375 C16.52649823 47.00079578 18.80383921 43.20243301 19.1640625 38.125 C18.79879578 32.97647857 17.40784437 29.42954627 14 25.4375 C6.2555054 20.6754597 -1.38637147 22.81101495 -7 29.4375 Z " fill="#FFFFFF" transform="translate(49,27.5625)"/>
<path d="M0 0 C0.66 2.64 1.32 5.28 2 8 C2.98097656 7.4225 3.96195312 6.845 4.97265625 6.25 C15.11636143 0.55999954 23.78404874 -2.58046635 35.5390625 0.7109375 C40.77129893 3.00371526 44.44426359 6.88852719 47 12 C47.1247546 13.83708941 47.18768766 15.67851558 47.22119141 17.51953125 C47.24436432 18.67412842 47.26753723 19.82872559 47.29141235 21.01831055 C47.3112619 22.27039307 47.33111145 23.52247559 47.3515625 24.8125 C47.38629166 26.73219604 47.38629166 26.73219604 47.42172241 28.69067383 C47.47018506 31.40083555 47.51511512 34.11102751 47.55761719 36.82128906 C47.61245463 40.29853213 47.6762864 43.77554162 47.74279213 47.25257874 C47.80485296 50.56413929 47.85910227 53.87581391 47.9140625 57.1875 C47.93796051 58.43958252 47.96185852 59.69166504 47.98648071 60.98168945 C48.0033493 62.13628662 48.0202179 63.29088379 48.03759766 64.48046875 C48.05456696 65.50035889 48.07153625 66.52024902 48.08901978 67.57104492 C48 70 48 70 47 72 C38.48918854 73.53890459 29.53489335 73.20776793 21 72 C20 71 20 71 19.90234375 68.89306641 C19.91394531 67.97187012 19.92554688 67.05067383 19.9375 66.1015625 C19.94595947 65.07305176 19.95441895 64.04454102 19.96313477 62.98486328 C19.97530029 61.8761084 19.98746582 60.76735352 20 59.625 C20.04636567 51.44468697 19.99531121 43.29511903 19.5625 35.125 C19.52318359 34.34205566 19.48386719 33.55911133 19.44335938 32.75244141 C19.26170321 29.63005141 18.99401823 26.98205469 18 24 C16.62686409 23.89014913 15.25105487 23.81358009 13.875 23.75 C13.10929687 23.70359375 12.34359375 23.6571875 11.5546875 23.609375 C7.72781292 24.19452402 5.89243173 25.4107223 3 28 C2.10307253 31.24259822 2.18581259 34.41445529 2.23046875 37.76171875 C2.21913406 38.70811722 2.20779938 39.65451569 2.19612122 40.6295929 C2.16538912 43.64945339 2.17524814 46.66753572 2.1875 49.6875 C2.17335297 52.7176012 2.15102472 55.74751861 2.12532043 58.77754211 C2.11223119 60.66274575 2.10755217 62.54802917 2.11186218 64.43327332 C2.10745087 70.89254913 2.10745087 70.89254913 1 72 C-0.90893746 72.27013266 -2.82876729 72.46413123 -4.75 72.625 C-5.79671875 72.72039062 -6.8434375 72.81578125 -7.921875 72.9140625 C-13.621421 73.20120106 -19.32808731 72.50814005 -25 72 C-25.00808685 71.44671021 -25.01617371 70.89342041 -25.02450562 70.32336426 C-25.11162976 64.4814844 -25.21115674 58.63990285 -25.31738281 52.79833984 C-25.35529297 50.62814406 -25.3902063 48.4578935 -25.421875 46.28759766 C-25.59154194 34.79796464 -25.88649826 23.50353358 -27.58447266 12.12695312 C-27.95261564 9.35657984 -28.15976944 6.78800851 -28 4 C-25.72996452 1.72996452 -21.00310015 1.91671498 -17.9375 1.4375 C-16.68549805 1.22963867 -16.68549805 1.22963867 -15.40820312 1.01757812 C-10.20315534 0.19402029 -5.26875226 -0.14009399 0 0 Z " fill="#FFFFFF" transform="translate(462,29)"/>
<path d="M0 0 C12.69621927 -0.07493465 25.37129357 0.15677652 38.0625 0.5 C39.9121041 0.54837901 41.76171347 0.59655712 43.61132812 0.64453125 C48.07428258 0.76071534 52.53715787 0.87958173 57 1 C57.08013882 4.07536919 57.12882142 7.1504682 57.171875 10.2265625 C57.19491699 11.09611572 57.21795898 11.96566895 57.24169922 12.86157227 C57.32609887 20.89104857 57.32609887 20.89104857 54.25 24.375 C52.84499223 25.5968703 51.42630089 26.80305403 50 28 C47.92981961 30.1846736 45.94104088 32.44176602 43.9375 34.6875 C42.95220504 35.77980841 41.96143896 36.86721052 40.96484375 37.94921875 C40.5380835 38.41674561 40.11132324 38.88427246 39.67163086 39.3659668 C37.25405734 41.72916522 34.5971525 43.83570625 32 46 C41.24 46 50.48 46 60 46 C61.3833605 48.76672101 60.67938379 50.22810123 60.00390625 53.2265625 C59.66069336 54.7734375 59.66069336 54.7734375 59.31054688 56.3515625 C59.06369141 57.43179688 58.81683594 58.51203125 58.5625 59.625 C58.31951172 60.71296875 58.07652344 61.8009375 57.82617188 62.921875 C57.22353564 65.61601348 56.61456302 68.30856155 56 71 C48.19424805 71.02312792 40.38850405 71.04091738 32.58272648 71.05181217 C28.9585404 71.05704002 25.3343777 71.06413587 21.71020508 71.07543945 C18.21540025 71.08627184 14.72061796 71.09227758 11.22579765 71.09487724 C9.23760611 71.09763551 7.24942369 71.10544688 5.26124573 71.11329651 C4.06007614 71.11337204 2.85890656 71.11344757 1.62133789 71.11352539 C0.02582848 71.11685631 0.02582848 71.11685631 -1.60191345 71.12025452 C-4 71 -4 71 -5 70 C-6.48512863 62.71152154 -7.61599239 53.25878139 -3.58642578 46.69873047 C0.10923038 42.43605306 4.47693933 39.0103471 8.95605469 35.60742188 C11.88752973 33.30201914 14.40461515 30.7401593 17 28.0625 C18.33249671 26.70751009 19.66567447 25.35318902 21 24 C19.92516357 24.00785522 19.92516357 24.00785522 18.82861328 24.01586914 C15.59408438 24.03660667 12.35956944 24.04964984 9.125 24.0625 C7.43310547 24.07506836 7.43310547 24.07506836 5.70703125 24.08789062 C4.63066406 24.09111328 3.55429687 24.09433594 2.4453125 24.09765625 C1.45031738 24.10289307 0.45532227 24.10812988 -0.56982422 24.11352539 C-3 24 -3 24 -5 23 C-4.72285156 21.75863281 -4.44570313 20.51726563 -4.16015625 19.23828125 C-3.79424248 17.59636049 -3.42835864 15.95443305 -3.0625 14.3125 C-2.88009766 13.49587891 -2.69769531 12.67925781 -2.50976562 11.83789062 C-2.33251953 11.04189453 -2.15527344 10.24589844 -1.97265625 9.42578125 C-1.81031494 8.69786377 -1.64797363 7.96994629 -1.48071289 7.2199707 C-0.96064642 4.818262 -0.47622061 2.41075102 0 0 Z " fill="#FFFFFF" transform="translate(328,31)"/>
<path d="M0 0 C4.91415452 2.18511069 8.35655469 5.41238517 10.546875 10.34765625 C12.3232327 17.11105545 11.55191382 22.11498315 8.546875 28.34765625 C7.886875 29.00765625 7.226875 29.66765625 6.546875 30.34765625 C5.46223313 33.50336147 5.39482658 36.5323866 5.34155273 39.85058594 C5.32160751 40.95142517 5.30166229 42.0522644 5.28111267 43.1864624 C5.26440018 44.36887512 5.24768768 45.55128784 5.23046875 46.76953125 C5.20968765 47.98465393 5.18890656 49.19977661 5.16749573 50.45172119 C5.10210672 54.33364198 5.04316449 58.21563045 4.984375 62.09765625 C4.94117968 64.72917367 4.89756506 67.36068424 4.85351562 69.9921875 C4.74643617 76.44393885 4.64464986 82.89575754 4.546875 89.34765625 C2.48563423 89.54852679 0.4227373 89.73239657 -1.640625 89.91015625 C-3.36345703 90.06677734 -3.36345703 90.06677734 -5.12109375 90.2265625 C-10.91100462 90.55330691 -16.69083538 89.87279506 -22.453125 89.34765625 C-22.45455002 88.64323395 -22.45597504 87.93881165 -22.45744324 87.21304321 C-22.47536337 80.53471854 -22.5172408 73.85700791 -22.58521557 67.17899513 C-22.61932957 63.74668476 -22.64457088 60.31481206 -22.64868164 56.88232422 C-22.65382698 52.92505959 -22.6990988 48.9687157 -22.74609375 45.01171875 C-22.7421611 43.7946524 -22.73822845 42.57758606 -22.73417664 41.32363892 C-22.85150556 34.39223968 -23.73264881 29.49600483 -27.33540344 23.51864624 C-29.22148697 19.8552397 -29.14422664 16.34068792 -28.453125 12.34765625 C-26.42575563 6.4908114 -22.83519269 3.44585876 -17.65234375 0.23046875 C-12.32139663 -1.90948516 -5.4799036 -1.45723551 0 0 Z " fill="#FEFEFE" transform="translate(418.453125,11.65234375)"/>
<path d="M0 0 C2.97 0 5.94 0 9 0 C10.98 3.96 12.96 7.92 15 12 C15.99 10.02 16.98 8.04 18 6 C19.6875 2.625 19.6875 2.625 22 0 C24.64 0 27.28 0 30 0 C30 8.91 30 17.82 30 27 C27.03 27 24.06 27 21 27 C21 24.36 21 21.72 21 19 C19.02 23.455 19.02 23.455 17 28 C15.68 27.67 14.36 27.34 13 27 C11.25 23.4375 11.25 23.4375 10 20 C9.67 22.31 9.34 24.62 9 27 C6.03 27 3.06 27 0 27 C0 18.09 0 9.18 0 0 Z " fill="#FFFFFF" transform="translate(478,112)"/>
<path d="M0 0 C2.97 0 5.94 0 9 0 C10.98 3.96 12.96 7.92 15 12 C15.99 10.02 16.98 8.04 18 6 C19.6875 2.625 19.6875 2.625 22 0 C24.64 0 27.28 0 30 0 C30 8.91 30 17.82 30 27 C27.03 27 24.06 27 21 27 C21 24.36 21 21.72 21 19 C19.02 23.455 19.02 23.455 17 28 C15.68 27.67 14.36 27.34 13 27 C11.25 23.4375 11.25 23.4375 10 20 C9.67 22.31 9.34 24.62 9 27 C6.03 27 3.06 27 0 27 C0 18.09 0 9.18 0 0 Z " fill="#FFFFFF" transform="translate(445,112)"/>
<path d="M0 0 C3.84724728 1.95859862 7.08727899 4.0682957 9 8 C9.57729504 12.26556888 9.44900325 15.85254726 7.875 19.875 C4.81272133 23.34558249 2.01364983 24.72361669 -2.58984375 25.35546875 C-8.34920611 25.64778207 -12.24825624 25.16028533 -16.6953125 21.3515625 C-19.51924738 18.42616889 -19.94223632 16.63540048 -20.3125 12.5625 C-19.96830492 8.63867606 -19.51576202 7.0026837 -17 4 C-11.5673136 -0.10223259 -6.75251296 -1.11427607 0 0 Z " fill="#30CB6C" transform="translate(415,16)"/>
<path d="M0 0 C0.66 1.98 1.32 3.96 2 6 C0.02 6.99 0.02 6.99 -2 8 C-1.44119141 8.87011719 -1.44119141 8.87011719 -0.87109375 9.7578125 C2.9657876 16.09337135 2.9657876 16.09337135 3.125 20.3125 C1.65800085 23.81699797 0.27497543 25.07773181 -3 27 C-6.8125 27.75 -6.8125 27.75 -10 28 C-10.99 26.02 -11.98 24.04 -13 22 C-11.02 21.34 -9.04 20.68 -7 20 C-8.01776242 17.2598704 -9.01649233 14.97617775 -10.6875 12.5625 C-12 10 -12 10 -12.0625 6.9375 C-10.07992876 1.45627364 -5.66132595 -0.66603835 0 0 Z " fill="#FFFFFF" transform="translate(440,111)"/>
<path d="" fill="#FFFFFF" transform="translate(0,0)"/>
<path d="" fill="#FFFFFF" transform="translate(0,0)"/>
</svg>
